<svg width="24" height="24" viewBox="0 0 24 24" fill="none" xmlns="http://www.w3.org/2000/svg">
<path d="M6.375 5.25H4.125C3.50368 5.25 3 5.75368 3 6.375V9.75C3 10.3713 3.50368 10.875 4.125 10.875H6.375C6.99632 10.875 7.5 10.3713 7.5 9.75V6.375C7.5 5.75368 6.99632 5.25 6.375 5.25Z" stroke="#12D18E" stroke-width="1.5" stroke-linecap="round" stroke-linejoin="round"/>
<path d="M5.25 3V5.25M5.25 10.875V21" stroke="#12D18E" stroke-width="1.5" stroke-linecap="round" stroke-linejoin="round"/>
<path d="M13.125 14.25H10.875C10.2537 14.25 9.75 14.7537 9.75 15.375V18.75C9.75 19.3713 10.2537 19.875 10.875 19.875H13.125C13.7463 19.875 14.25 19.3713 14.25 18.75V15.375C14.25 14.7537 13.7463 14.25 13.125 14.25Z" stroke="#12D18E" stroke-width="1.5" stroke-linecap="round" stroke-linejoin="round"/>
<path d="M12 3V14.25M12 19.875V21" stroke="#12D18E" stroke-width="1.5" stroke-linecap="round" stroke-linejoin="round"/>
<path d="M19.875 4.125H17.625C17.0037 4.125 16.5 4.62868 16.5 5.25V9.75C16.5 10.3713 17.0037 10.875 17.625 10.875H19.875C20.4963 10.875 21 10.3713 21 9.75V5.25C21 4.62868 20.4963 4.125 19.875 4.125Z" stroke="#12D18E" stroke-width="1.5" stroke-linecap="round" stroke-linejoin="round"/>
<path d="M18.75 3V4.125M18.75 10.875V21" stroke="#12D18E" stroke-width="1.5" stroke-linecap="round" stroke-linejoin="round"/>
</svg>
