<svg width="174" height="174" viewBox="0 0 174 174" fill="none" xmlns="http://www.w3.org/2000/svg">
<path fill-rule="evenodd" clip-rule="evenodd" d="M86.9997 173.667C134.864 173.667 173.666 134.865 173.666 87.0002C173.666 39.1355 134.864 0.333496 86.9997 0.333496C39.135 0.333496 0.333008 39.1355 0.333008 87.0002C0.333008 134.865 39.135 173.667 86.9997 173.667ZM36.906 115.32C43.915 93.8801 47.025 85.3337 58.3786 64.7918C65.4881 53.5575 72.179 44.7428 85.2267 36.7335C107.667 39.6545 116.682 47.2324 131.803 61.359C94.685 66.4799 58.4687 86.6566 36.906 115.32ZM41.218 120.644C56.9582 96.9091 80.9528 81.8723 109.86 72.3752C121.221 75.1253 127.342 81.0486 136.914 92.6804C100.618 92.4399 62.8115 104.763 36.733 128.492L41.218 120.644ZM39.2568 134.811C59.1258 115.398 84.1633 104.534 113.043 99.9279C123.344 103.467 131.297 109.965 137.844 120.644C108.248 117.556 74.8416 116.022 48.5726 129.98L36.733 137.844L39.2568 134.811ZM43.9147 137.844C61.4259 126.671 95.355 122.287 113.043 124.191C117.921 129.549 119.271 132.533 120.84 137.845C118.875 136.532 67.0152 132.947 43.9147 137.844Z" fill="#12D18E"/>
</svg>
