<svg width="28" height="28" viewBox="0 0 28 28" fill="none" xmlns="http://www.w3.org/2000/svg">
<path fill-rule="evenodd" clip-rule="evenodd" d="M13.9997 4.08325C8.53151 4.08325 4.08301 8.53175 4.08301 13.9999C4.08301 19.4681 8.53151 23.9166 13.9997 23.9166C19.4678 23.9166 23.9163 19.4681 23.9163 13.9999C23.9163 8.53175 19.4678 4.08325 13.9997 4.08325ZM13.9997 25.6666C7.56667 25.6666 2.33301 20.4329 2.33301 13.9999C2.33301 7.56692 7.56667 2.33325 13.9997 2.33325C20.4327 2.33325 25.6663 7.56692 25.6663 13.9999C25.6663 20.4329 20.4327 25.6666 13.9997 25.6666Z" fill="#212121"/>
<path fill-rule="evenodd" clip-rule="evenodd" d="M18.6061 15.1825C17.9609 15.1825 17.4336 14.661 17.4336 14.0158C17.4336 13.3706 17.9504 12.8491 18.5944 12.8491H18.6061C19.2513 12.8491 19.7728 13.3706 19.7728 14.0158C19.7728 14.661 19.2513 15.1825 18.6061 15.1825Z" fill="#212121"/>
<path fill-rule="evenodd" clip-rule="evenodd" d="M13.9282 15.1825C13.283 15.1825 12.7568 14.661 12.7568 14.0158C12.7568 13.3706 13.2725 12.8491 13.9177 12.8491H13.9282C14.5733 12.8491 15.0948 13.3706 15.0948 14.0158C15.0948 14.661 14.5733 15.1825 13.9282 15.1825Z" fill="#212121"/>
<path fill-rule="evenodd" clip-rule="evenodd" d="M9.25062 15.1825C8.60546 15.1825 8.07812 14.661 8.07812 14.0158C8.07812 13.3706 8.59496 12.8491 9.24012 12.8491H9.25062C9.89579 12.8491 10.4173 13.3706 10.4173 14.0158C10.4173 14.661 9.89579 15.1825 9.25062 15.1825Z" fill="#212121"/>
</svg>
