<svg width="28" height="28" viewBox="0 0 28 28" fill="none" xmlns="http://www.w3.org/2000/svg">
<path fill-rule="evenodd" clip-rule="evenodd" d="M26.542 16.2807H2.04199C1.55899 16.2807 1.16699 15.8887 1.16699 15.4057C1.16699 14.9227 1.55899 14.5307 2.04199 14.5307H26.542C27.025 14.5307 27.417 14.9227 27.417 15.4057C27.417 15.8887 27.025 16.2807 26.542 16.2807Z" fill="#212121"/>
<path fill-rule="evenodd" clip-rule="evenodd" d="M24.3606 11.3692C23.8776 11.3692 23.4856 10.9772 23.4856 10.4942V8.72783C23.4856 6.811 21.9246 5.25 20.0054 5.25H18.5996C18.1166 5.25 17.7246 4.858 17.7246 4.375C17.7246 3.892 18.1166 3.5 18.5996 3.5H20.0054C22.8894 3.5 25.2356 5.84617 25.2356 8.72783V10.4942C25.2356 10.9772 24.8436 11.3692 24.3606 11.3692Z" fill="#212121"/>
<path fill-rule="evenodd" clip-rule="evenodd" d="M4.22363 11.3692C3.74063 11.3692 3.34863 10.9772 3.34863 10.4942V8.72783C3.34863 5.84617 5.6948 3.5 8.5788 3.5H10.0208C10.5038 3.5 10.8958 3.892 10.8958 4.375C10.8958 4.858 10.5038 5.25 10.0208 5.25H8.5788C6.65963 5.25 5.09863 6.811 5.09863 8.72783V10.4942C5.09863 10.9772 4.70663 11.3692 4.22363 11.3692Z" fill="#212121"/>
<path fill-rule="evenodd" clip-rule="evenodd" d="M20.0054 25.3874H18.5996C18.1166 25.3874 17.7246 24.9954 17.7246 24.5124C17.7246 24.0294 18.1166 23.6374 18.5996 23.6374H20.0054C21.9246 23.6374 23.4856 22.0764 23.4856 20.1584V15.4042C23.4856 14.9212 23.8776 14.5292 24.3606 14.5292C24.8436 14.5292 25.2356 14.9212 25.2356 15.4042V20.1584C25.2356 23.0412 22.8894 25.3874 20.0054 25.3874Z" fill="#212121"/>
<path fill-rule="evenodd" clip-rule="evenodd" d="M10.0208 25.3874H8.5788C5.6948 25.3874 3.34863 23.0412 3.34863 20.1584V15.4042C3.34863 14.9212 3.74063 14.5292 4.22363 14.5292C4.70663 14.5292 5.09863 14.9212 5.09863 15.4042V20.1584C5.09863 22.0764 6.65963 23.6374 8.5788 23.6374H10.0208C10.5038 23.6374 10.8958 24.0294 10.8958 24.5124C10.8958 24.9954 10.5038 25.3874 10.0208 25.3874Z" fill="#212121"/>
</svg>
