<svg width="28" height="28" viewBox="0 0 28 28" fill="none" xmlns="http://www.w3.org/2000/svg">
<mask id="mask0_62_11382" style="mask-type:luminance" maskUnits="userSpaceOnUse" x="2" y="2" width="24" height="24">
<path fill-rule="evenodd" clip-rule="evenodd" d="M2.33301 2.33334H25.0559V25.0565H2.33301V2.33334Z" fill="white"/>
</mask>
<g mask="url(#mask0_62_11382)">
<path fill-rule="evenodd" clip-rule="evenodd" d="M13.6952 4.08334C8.39501 4.08334 4.08301 8.39418 4.08301 13.6943C4.08301 18.9945 8.39501 23.3065 13.6952 23.3065C18.9942 23.3065 23.3062 18.9945 23.3062 13.6943C23.3062 8.39418 18.9942 4.08334 13.6952 4.08334ZM13.6952 25.0565C7.43017 25.0565 2.33301 19.9593 2.33301 13.6943C2.33301 7.42934 7.43017 2.33334 13.6952 2.33334C19.9602 2.33334 25.0562 7.42934 25.0562 13.6943C25.0562 19.9593 19.9602 25.0565 13.6952 25.0565Z" fill="#212121"/>
</g>
<mask id="mask1_62_11382" style="mask-type:luminance" maskUnits="userSpaceOnUse" x="20" y="20" width="6" height="7">
<path fill-rule="evenodd" clip-rule="evenodd" d="M20.1133 20.6581H25.9747V26.5087H20.1133V20.6581Z" fill="white"/>
</mask>
<g mask="url(#mask1_62_11382)">
<path fill-rule="evenodd" clip-rule="evenodd" d="M25.0999 26.5087C24.8771 26.5087 24.6531 26.4235 24.4816 26.2532L20.3702 22.1535C20.0284 21.8117 20.0272 21.2575 20.3691 20.9157C20.7097 20.5715 21.2639 20.5738 21.6069 20.9133L25.7182 25.0142C26.0601 25.356 26.0612 25.909 25.7194 26.2508C25.5491 26.4235 25.3239 26.5087 25.0999 26.5087Z" fill="#212121"/>
</g>
</svg>
